<svg width="15" height="15" viewBox="0 0 15 15" fill="none" xmlns="http://www.w3.org/2000/svg">
    <defs>
        <radialGradient id="paint0_radial_4_4" cx="0" cy="0" r="1" gradientUnits="userSpaceOnUse"
            gradientTransform="translate(-8.06931 -14.9363) rotate(41.8679) scale(39.8396 6.0396)">
            <stop offset="0.102095" stop-color="#969DC6" />
            <stop offset="0.921875" stop-color="#C7CBE7" />
        </radialGradient>
        <radialGradient id="paint1_radial_4_4" cx="0" cy="0" r="1" gradientUnits="userSpaceOnUse"
            gradientTransform="translate(-10.904 -20.0883) rotate(41.7597) scale(49.3496 7.58842)">
            <stop offset="0.102095" stop-color="#969DC6" />
            <stop offset="0.921875" stop-color="#C7CBE7" />
        </radialGradient>
        <radialGradient id="paint2_radial_4_4" cx="0" cy="0" r="1" gradientUnits="userSpaceOnUse"
            gradientTransform="translate(6.01917 97.5) rotate(-94.969) scale(120.453 12.2075)">
            <stop offset="0.102095" stop-color="#969DC6" />
            <stop offset="0.921875" stop-color="#C7CBE7" />
        </radialGradient>
    </defs>
    <path
        d="M12.484 9.90422C13.0512 8.14678 13.0507 6.22319 12.4666 4.45725C12.3519 4.11037 11.9864 3.93043 11.6565 4.05435L11.6377 4.06138C11.309 4.1849 11.142 4.56261 11.256 4.90835C11.7437 6.38854 11.743 8.00029 11.2673 9.47244C11.1655 9.78781 11.3019 10.1332 11.5873 10.2798L11.6054 10.2891C11.9491 10.4657 12.3615 10.284 12.484 9.90422Z"
        fill="url(#paint0_radial_4_4)" />
    <path
        d="M14.3746 10.8806C15.1818 8.58799 15.2115 6.04962 14.4412 3.72775C14.3243 3.37527 13.9537 3.1916 13.6184 3.31752C13.2871 3.4419 13.113 3.82254 13.2285 4.17071C13.9022 6.20046 13.8749 8.42019 13.1668 10.4238C13.0531 10.7456 13.1937 11.1051 13.4877 11.2562C13.8311 11.4326 14.2423 11.2565 14.3746 10.8806Z"
        fill="url(#paint1_radial_4_4)" />
    <path
        d="M8.50463 0.126484C8.05762 -0.0928351 7.54434 -0.0234591 7.16512 0.307571L3.62375 3.39876H1.25856C0.564572 3.39876 0 3.99012 0 4.71705V10.2829C0 11.0098 0.564572 11.6012 1.25856 11.6012H3.62378L7.16515 14.6924C7.54476 15.0238 8.05809 15.0926 8.50469 14.8735C8.9517 14.6542 9.22939 14.1968 9.22939 13.6797V1.32029C9.22936 0.803223 8.95167 0.345804 8.50463 0.126484ZM3.35613 10.7282H1.25856C1.02725 10.7282 0.83904 10.5252 0.83904 10.2829V4.71705C0.83904 4.47476 1.02725 4.27762 1.25856 4.27762H3.35613V10.7282ZM8.39034 13.6797C8.39034 13.9389 8.20546 14.0498 8.14877 14.0776C8.0921 14.1054 7.89243 14.1832 7.70226 14.0172L4.19517 10.956V4.044L7.70226 0.982727C7.89243 0.816729 8.09213 0.894542 8.14877 0.922345C8.20544 0.950148 8.39034 1.06101 8.39034 1.32029V13.6797Z"
        fill="url(#paint2_radial_4_4)" />
</svg>