<svg width="25" height="29" viewBox="0 0 25 29" fill="none" xmlns="http://www.w3.org/2000/svg">
    <defs>
        <filter id="filter0_ii_4_145" x="0" y="0" width="26" height="30" filterUnits="userSpaceOnUse"
            color-interpolation-filters="sRGB">
            <feFlood flood-opacity="0" result="BackgroundImageFix" />
            <feBlend mode="normal" in="SourceGraphic" in2="BackgroundImageFix" result="shape" />
            <feColorMatrix in="SourceAlpha" type="matrix" values="0 0 0 0 0 0 0 0 0 0 0 0 0 0 0 0 0 0 127 0"
                result="hardAlpha" />
            <feOffset dx="1" dy="1" />
            <feGaussianBlur stdDeviation="1.5" />
            <feComposite in2="hardAlpha" operator="arithmetic" k2="-1" k3="1" />
            <feColorMatrix type="matrix" values="0 0 0 0 0.147813 0 0 0 0 0.169527 0 0 0 0 0.275 0 0 0 0.64 0" />
            <feBlend mode="normal" in2="shape" result="effect1_innerShadow_4_145" />
            <feColorMatrix in="SourceAlpha" type="matrix" values="0 0 0 0 0 0 0 0 0 0 0 0 0 0 0 0 0 0 127 0"
                result="hardAlpha" />
            <feOffset dx="0.5" dy="0.5" />
            <feGaussianBlur stdDeviation="0.25" />
            <feComposite in2="hardAlpha" operator="arithmetic" k2="-1" k3="1" />
            <feColorMatrix type="matrix" values="0 0 0 0 0.0577257 0 0 0 0 0.0724103 0 0 0 0 0.145833 0 0 0 0.15 0" />
            <feBlend mode="normal" in2="effect1_innerShadow_4_145" result="effect2_innerShadow_4_145" />
        </filter>
        <linearGradient id="paint0_linear_4_145" x1="13.8889" y1="29" x2="-3.39149" y2="2.18562"
            gradientUnits="userSpaceOnUse">
            <stop stop-color="#D2D6EF" />
            <stop offset="1" stop-color="#9299C2" />
        </linearGradient>
        <linearGradient id="paint1_linear_4_145" x1="13.8889" y1="29" x2="-3.39149" y2="2.18562"
            gradientUnits="userSpaceOnUse">
            <stop stop-color="#D2D6EF" />
            <stop offset="1" stop-color="#9299C2" />
        </linearGradient>
    </defs>
    <g filter="url(#filter0_ii_4_145)">
        <path
            d="M23.12 11.1536L6.02495 0.595536C4.78815 -0.167358 3.29284 -0.199077 2.0249 0.510688C0.756956 1.22034 0 2.51294 0 3.96809V24.9881C0 27.1884 1.76943 28.988 3.9442 28.9999C3.95013 28.9999 3.95607 29 3.96189 29C4.64151 28.9999 5.34974 28.7865 6.01121 28.3821C6.54334 28.0568 6.71152 27.3609 6.38686 26.8278C6.0622 26.2946 5.36754 26.1262 4.83558 26.4515C4.52619 26.6405 4.22403 26.7383 3.95635 26.7383C3.1358 26.7338 2.25724 26.0295 2.25724 24.9882V3.96815C2.25724 3.34391 2.58196 2.78957 3.12579 2.48513C3.66968 2.18068 4.31103 2.19428 4.8409 2.52115L21.936 13.0793C22.4499 13.3962 22.7439 13.9247 22.7426 14.5293C22.7414 15.1338 22.4452 15.6612 21.9286 15.9771L9.56873 23.5594C9.03711 23.8856 8.87 24.5817 9.19551 25.1143C9.52096 25.647 10.2158 25.8144 10.7474 25.4883L23.1058 17.9068C24.2891 17.1836 24.9972 15.9227 25 14.5338C25.0028 13.1451 24.2998 11.8814 23.12 11.1536Z"
            fill="url(#paint0_linear_4_145)" />
    </g>
    <path
        d="M22.595 12.0048L22.5946 12.0045L5.49996 1.44664C4.57203 0.87427 3.46459 0.850797 2.51335 1.38328L2.51329 1.38331C1.56191 1.91579 1 2.87425 1 3.96809V24.9881C1 26.6491 2.33583 27.9911 3.94966 28L3.95793 28L3.96116 28L3.96181 28L22.595 12.0048ZM22.595 12.0048C23.4784 12.5496 24.0021 13.49 24 14.5318C23.9979 15.5737 23.4704 16.5119 22.5843 17.0536L22.5829 17.0544L10.2245 24.6359L10.7474 25.4883L10.2245 24.6359C10.1649 24.6724 10.0864 24.6544 10.0488 24.593L10.0488 24.5928C10.0105 24.5303 10.0309 24.4491 10.0916 24.4118L22.4502 16.8302C22.4506 16.83 22.4509 16.8298 22.4513 16.8296C23.2637 16.3324 23.7407 15.4831 23.7426 14.5314C23.7446 13.5799 23.2714 12.7282 22.4615 12.2284C22.4614 12.2284 22.4612 12.2283 22.4611 12.2282L5.36637 1.67034L5.36593 1.67007C4.52694 1.1525 3.4977 1.13094 2.63735 1.61253L2.63731 1.61255C1.77707 2.09412 1.25724 2.98252 1.25724 3.96815V24.9882C1.25724 26.6302 2.63209 27.7311 3.9509 27.7383L3.95614 27.7383C4.46006 27.7384 4.942 27.5584 5.35701 27.3047L5.35727 27.3046C5.41668 27.2683 5.49523 27.2863 5.53273 27.3479L5.53278 27.348C5.57092 27.4106 5.55045 27.4917 5.48965 27.5289L5.48959 27.5289M22.595 12.0048L5.48959 27.5289M5.48959 27.5289C4.96273 27.851 4.43281 27.9999 3.96189 28L5.48959 27.5289Z"
        stroke="url(#paint1_linear_4_145)" stroke-width="2" stroke-linejoin="round" />
</svg>