<svg width="17" height="19" viewBox="0 0 17 19" fill="none" xmlns="http://www.w3.org/2000/svg">
    <defs>
        <radialGradient id="paint0_radial_9_200" cx="0" cy="0" r="1" gradientUnits="userSpaceOnUse"
            gradientTransform="translate(5.87497 34.9951) rotate(-97.4336) scale(40.899 6.16238)">
            <stop offset="0.102095" stop-color="#969DC6" />
            <stop offset="0.921875" stop-color="#C7CBE7" />
        </radialGradient>
        <radialGradient id="paint1_radial_9_200" cx="0" cy="0" r="1" gradientUnits="userSpaceOnUse"
            gradientTransform="translate(4.63254 40.8102) rotate(-97.5412) scale(50.6662 7.74201)">
            <stop offset="0.102095" stop-color="#969DC6" />
            <stop offset="0.921875" stop-color="#C7CBE7" />
        </radialGradient>
        <radialGradient id="paint2_radial_9_200" cx="0" cy="0" r="1" gradientUnits="userSpaceOnUse"
            gradientTransform="translate(8.64408 36.6786) rotate(-76.1104) scale(26.4888 7.24976)">
            <stop offset="0.102095" stop-color="#969DC6" />
            <stop offset="0.921875" stop-color="#C7CBE7" />
        </radialGradient>
        <radialGradient id="paint3_radial_9_200" cx="0" cy="0" r="1" gradientUnits="userSpaceOnUse"
            gradientTransform="translate(7.21739 87.5714) rotate(-80.6387) scale(104.245 19.6498)">
            <stop offset="0.102095" stop-color="#969DC6" />
            <stop offset="0.921875" stop-color="#C7CBE7" />
        </radialGradient>
    </defs>
    <path
        d="M6.50615 2.12961C4.88846 3.03769 3.60136 4.46722 2.87394 6.18877C2.73105 6.52694 2.89503 6.91686 3.23472 7.05608L3.25402 7.06401C3.59249 7.20268 3.97526 7.03912 4.118 6.70237C4.72917 5.26069 5.8085 4.0637 7.16404 3.30343C7.45439 3.14054 7.57939 2.78824 7.4554 2.47926L7.44751 2.45969C7.29826 2.0875 6.85576 1.93336 6.50615 2.12961Z"
        fill="url(#paint0_radial_9_200)" />
    <path
        d="M5.68833 0.0786356C3.52561 1.21605 1.80354 3.0812 0.8489 5.34631C0.703979 5.69017 0.869408 6.08642 1.21468 6.22799L1.21491 6.22806C1.55597 6.36791 1.946 6.20709 2.08913 5.8674C2.92342 3.88706 4.43041 2.25703 6.32251 1.2648C6.62634 1.10547 6.75759 0.739805 6.62989 0.421408C6.48071 0.0496122 6.0429 -0.107848 5.68833 0.0786356Z"
        fill="url(#paint1_radial_9_200)" />
    <path
        d="M9.50006 19C11.0502 19 12.3126 17.7986 12.3126 16.3214C12.3126 16.0257 12.0606 15.7857 11.7501 15.7857C11.4396 15.7857 11.1876 16.0257 11.1876 16.3214C11.1876 17.2079 10.43 17.9286 9.50006 17.9286C8.57007 17.9286 7.81256 17.2079 7.81256 16.3214C7.81256 16.0257 7.56056 15.7857 7.25006 15.7857C6.93956 15.7857 6.68756 16.0257 6.68756 16.3214C6.68756 17.7986 7.94975 19 9.50006 19V19Z"
        fill="url(#paint2_radial_9_200)" />
    <path
        d="M3.31259 16.8571H15.6875C16.4113 16.8571 17 16.2964 17 15.6072C17 15.2414 16.8327 14.895 16.541 14.6571C16.5222 14.6414 16.502 14.6272 16.481 14.6142C15.3801 13.6992 14.75 12.3828 14.75 10.9928V8.99996C14.75 6.24291 12.3943 4 9.50007 4C9.38004 4 9.25027 4.00209 9.13024 4.02145C8.82359 4.06997 8.6165 4.34646 8.66758 4.63786C8.71853 4.92926 9.01406 5.12649 9.31481 5.07784C9.37483 5.06855 9.44074 5.07143 9.50007 5.07143C11.774 5.07143 13.625 6.83356 13.625 8.99996V10.9928C13.625 12.7186 14.4193 14.3515 15.8022 15.4721C15.8135 15.4807 15.8232 15.4886 15.8353 15.4964C15.8555 15.5207 15.875 15.5579 15.875 15.6072C15.875 15.7042 15.7894 15.7857 15.6875 15.7857H3.31259C3.21055 15.7857 3.125 15.7042 3.125 15.6072C3.125 15.5571 3.1445 15.5207 3.16551 15.4964C3.17677 15.4886 3.18652 15.4807 3.19778 15.4721C4.58151 14.3507 5.37499 12.6766 5.37499 10.9928V8.41176C5.37499 8.11605 5.12299 7.87605 4.81249 7.87605C4.50199 7.87605 4.24999 8.11605 4.24999 8.41176V10.9928C4.24999 12.3836 3.61924 13.7007 2.51677 14.6165C2.49658 14.6293 2.47708 14.6429 2.45909 14.6579C2.16727 14.895 2 15.2414 2 15.6072C2 16.2964 2.58873 16.8571 3.31259 16.8571Z"
        fill="url(#paint3_radial_9_200)" />
</svg>